<?xml version="1.0" encoding="utf-8"?>
<svg id="master-artboard" viewBox="0 0 2800 1900" version="1.1" xmlns="http://www.w3.org/2000/svg" x="0px" y="0px" width="2800px" height="1900px" style="enable-background:new 0 0 2800 1900;"><rect id="ee-background" x="0" y="0" width="2800" height="1900" style="fill: white; fill-opacity: 0; pointer-events: none;"/>

<path d="M 0 0 H 2800 V 1900 H 0 V 0 Z" class="st0" style="fill: rgb(255, 255, 255);" transform="matrix(0.3275589948262917, 0, 0, 0.3275589948262917, 1355.0775770830508, 262.76422119140625)"/>
<g transform="matrix(1, 0, 0, 1, 2.2120864834646454, 8.84834593385844)">
		<g>
			<path d="M 1668.431641 451.261414 H 1987.556335 V 819.15802 H 1668.431641 V 451.261414 Z" class="st1" style="fill: rgb(251, 191, 110);"/>
		</g>
		<g>
			<path d="M 1955.643921 451.261414 H 1987.556421 V 819.15802 H 1955.643921 V 451.261414 Z" class="st2" style="fill: rgb(246, 170, 104);"/>
		</g>
		<g>
			<path class="st3" d="M1990.3412,818.8569h-324.6943c-8.2305,0-14.9026,6.6721-14.9026,14.9025v0.0001&#10;&#9;&#9;&#9;&#9;c0,8.2304,6.6721,14.9025,14.9026,14.9025h324.6943c8.2305,0,14.9025-6.6721,14.9025-14.9025v-0.0001&#10;&#9;&#9;&#9;&#9;C2005.2437,825.529,1998.5717,818.8569,1990.3412,818.8569z" style="fill: rgb(53, 89, 104);"/>
		</g>
		<g>
			<path class="st3" d="M1990.3412,421.4563h-324.6943c-8.2305,0-14.9026,6.6721-14.9026,14.9025v0&#10;&#9;&#9;&#9;&#9;c0,8.2304,6.6721,14.9025,14.9026,14.9025h324.6943c8.2305,0,14.9025-6.6721,14.9025-14.9025v0&#10;&#9;&#9;&#9;&#9;C2005.2437,428.1284,1998.5717,421.4563,1990.3412,421.4563z" style="fill: rgb(53, 89, 104);"/>
		</g>
		<g>
			<path class="st4" d="M1767.7817,443.1327h-44.557c-3.9905,0-7.2255-3.2349-7.2255-7.2254v0c0-3.9905,3.235-7.2255,7.2255-7.2255&#10;&#9;&#9;&#9;&#9;h44.557c3.9906,0,7.2255,3.235,7.2255,7.2255v0C1775.0072,439.8978,1771.7723,443.1327,1767.7817,443.1327z" style="fill: rgb(99, 144, 163);"/>
		</g>
		<g>
			<path class="st4" d="M1690.7102,443.1327h-14.451c-3.9905,0-7.2255-3.2349-7.2255-7.2254v0c0-3.9905,3.235-7.2255,7.2255-7.2255&#10;&#9;&#9;&#9;&#9;h14.451c3.9905,0,7.2255,3.235,7.2255,7.2255v0C1697.9357,439.8978,1694.7007,443.1327,1690.7102,443.1327z" style="fill: rgb(99, 144, 163);"/>
		</g>
		<path class="st5" d="M1918.9144,611.7269L1918.9144,611.7269c-8.3136,0-15.0531,6.7395-15.0531,15.053v13.2468&#10;&#9;&#9;&#9;c0,8.3135,6.7395,15.053,15.0531,15.053l0,0c8.3136,0,15.0531-6.7395,15.0531-15.053v-13.2468&#10;&#9;&#9;&#9;C1933.9675,618.4664,1927.228,611.7269,1918.9144,611.7269z" style="fill: rgb(235, 88, 154);"/>
		<path class="st6" d="M1918.9144,611.7269c-1.6868,0-3.303,0.2897-4.817,0.8014c5.9481,2.0105,10.2361,7.6249,10.2361,14.2517&#10;&#9;&#9;&#9;v13.2466c0,6.6268-4.288,12.2412-10.2361,14.2517c1.514,0.5117,3.1302,0.8014,4.817,0.8014&#10;&#9;&#9;&#9;c8.3136,0,15.0531-6.7395,15.0531-15.0531V626.78C1933.9675,618.4664,1927.228,611.7269,1918.9144,611.7269z" style="fill: rgb(212, 80, 152);"/>
		<path class="st5" d="M1900.2487,411.8224h-33.7189h-33.7189h-16.3325c-9.6022,0-17.3862,7.7841-17.3862,17.3863v34.3962v3.6127&#10;&#9;&#9;&#9;v84.2971c0,7.3159,5.9307,13.2466,13.2466,13.2466h0.0001c7.3159,0,13.2466-5.9307,13.2466-13.2466v-72.8568&#10;&#9;&#9;&#9;c0-6.3183,5.1221-11.4403,11.4403-11.4403h0.0001c6.3182,0,11.4403,5.122,11.4403,11.4403v52.3846&#10;&#9;&#9;&#9;c0,6.6509,5.3915,12.0424,12.0424,12.0424l0,0c6.6509,0,12.0425-5.3915,12.0425-12.0424v-13.2467&#10;&#9;&#9;&#9;c0-8.6461,7.009-15.6552,15.6552-15.6552l0,0c8.6461,0,15.6552,7.0091,15.6552,15.6552v62.0186&#10;&#9;&#9;&#9;c0,8.3135,6.7395,15.053,15.0531,15.053l0,0c8.3136,0,15.0531-6.7395,15.0531-15.053V429.2086&#10;&#9;&#9;&#9;c0-9.6022-7.7842-17.3863-17.3864-17.3863H1900.2487z" style="fill: rgb(235, 88, 154);"/>
		<g>
			<path class="st6" d="M1826.1876,467.2176c-6.3184,0-11.4403,5.122-11.4403,11.4403v72.8568&#10;&#9;&#9;&#9;&#9;c0,5.3831-3.2164,10.0067-7.8276,12.079c1.6556,0.744,3.4863,1.1676,5.4192,1.1676c7.3159,0,13.2466-5.9307,13.2466-13.2466&#10;&#9;&#9;&#9;&#9;v-72.8568c0-4.3573,2.4369-8.1441,6.0212-10.0759C1829.9935,467.7126,1828.1487,467.2176,1826.1876,467.2176z" style="fill: rgb(212, 80, 152);"/>
			<path class="st6" d="M1916.5812,411.8224h-10.8381c9.6022,0,17.3862,7.7841,17.3862,17.3863v150.6058&#10;&#9;&#9;&#9;&#9;c0,6.4005-4.0017,11.8539-9.6339,14.0312c1.6833,0.6508,3.5061,1.0219,5.4191,1.0219c8.3136,0,15.0531-6.7395,15.0531-15.053&#10;&#9;&#9;&#9;&#9;V429.2086C1933.9675,419.6064,1926.1833,411.8224,1916.5812,411.8224z" style="fill: rgb(212, 80, 152);"/>
			<path class="st6" d="M1877.368,502.1407c-8.6461,0-15.6553,7.009-15.6553,15.6552v13.2467c0,4.6992-2.6976,8.7593-6.6233,10.7436&#10;&#9;&#9;&#9;&#9;c1.6304,0.8241,3.4675,1.2988,5.4191,1.2988c6.6509,0,12.0425-5.3916,12.0425-12.0424v-13.2467&#10;&#9;&#9;&#9;&#9;c0-6.7381,4.265-12.4648,10.2361-14.6718C1881.0962,502.4991,1879.2761,502.1407,1877.368,502.1407z" style="fill: rgb(212, 80, 152);"/>
		</g>
		<path class="st7" d="M1877.4292,733.3556h-165.1038c-4.6218,0-8.3687-3.7468-8.3687-8.3686V598.4191&#10;&#9;&#9;&#9;c0-4.6218,3.7468-8.3686,8.3687-8.3686h165.1038c4.6218,0,8.3685,3.7468,8.3685,8.3686V724.987&#10;&#9;&#9;&#9;C1885.7977,729.6088,1882.051,733.3556,1877.4292,733.3556z" style="fill: rgb(240, 244, 246);"/>
		<path class="st8" d="M1831.6067,435.9072h-14.4509c-3.9905,0-7.2255-3.2349-7.2255-7.2255l0,0&#10;&#9;&#9;&#9;c0-3.9905,3.235-7.2255,7.2255-7.2255h14.4509c3.9906,0,7.2255,3.235,7.2255,7.2255l0,0&#10;&#9;&#9;&#9;C1838.8322,432.6723,1835.5973,435.9072,1831.6067,435.9072z" style="fill: rgb(243, 166, 201);"/>
		<path class="st8" d="M1896.6359,435.9072h-37.3315c-3.9905,0-7.2255-3.2349-7.2255-7.2255l0,0&#10;&#9;&#9;&#9;c0-3.9905,3.235-7.2255,7.2255-7.2255h37.3315c3.9906,0,7.2255,3.235,7.2255,7.2255l0,0&#10;&#9;&#9;&#9;C1903.8613,432.6723,1900.6265,435.9072,1896.6359,435.9072z" style="fill: rgb(243, 166, 201);"/>
		<g>
			<path class="st9" d="M1693.7208,504.5492h-0.0001c-5.6532,0-10.2361-4.5829-10.2361-10.2361v-16.8594&#10;&#9;&#9;&#9;&#9;c0-5.6532,4.5829-10.2361,10.2361-10.2361h0.0001c5.6532,0,10.236,4.5828,10.236,10.2361v16.8594&#10;&#9;&#9;&#9;&#9;C1703.9568,499.9663,1699.374,504.5492,1693.7208,504.5492z" style="fill: rgb(255, 220, 141);"/>
		</g>
		<g>
			<path class="st9" d="M1693.7208,590.0505h-0.0001c-5.6532,0-10.2361-4.5828-10.2361-10.236v-51.7825&#10;&#9;&#9;&#9;&#9;c0-5.6533,4.5829-10.2361,10.2361-10.2361h0.0001c5.6532,0,10.236,4.5828,10.236,10.2361v51.7825&#10;&#9;&#9;&#9;&#9;C1703.9568,585.4677,1699.374,590.0505,1693.7208,590.0505z" style="fill: rgb(255, 220, 141);"/>
		</g>
		<g>
			<path class="st3" d="M1849.0682,633.4033h-118.0159c-4.9882,0-9.0319-4.0437-9.0319-9.0319l0,0&#10;&#9;&#9;&#9;&#9;c0-4.9882,4.0437-9.0319,9.0319-9.0319h118.0159c4.9882,0,9.0319,4.0437,9.0319,9.0319l0,0&#10;&#9;&#9;&#9;&#9;C1858.1001,629.3596,1854.0564,633.4033,1849.0682,633.4033z" style="fill: rgb(53, 89, 104);"/>
		</g>
		<g>
			<path class="st3" d="M1785.2433,673.1434h-54.1909c-4.9882,0-9.0319-4.0437-9.0319-9.0319l0,0&#10;&#9;&#9;&#9;&#9;c0-4.9882,4.0437-9.0318,9.0319-9.0318h54.1909c4.9882,0,9.0319,4.0436,9.0319,9.0318l0,0&#10;&#9;&#9;&#9;&#9;C1794.2751,669.0997,1790.2314,673.1434,1785.2433,673.1434z" style="fill: rgb(53, 89, 104);"/>
		</g>
		<g>
			<path class="st3" d="M1846.6598,673.1434h-21.6764c-4.9882,0-9.0319-4.0437-9.0319-9.0319l0,0&#10;&#9;&#9;&#9;&#9;c0-4.9882,4.0437-9.0318,9.0319-9.0318h21.6764c4.9882,0,9.0319,4.0436,9.0319,9.0318l0,0&#10;&#9;&#9;&#9;&#9;C1855.6917,669.0997,1851.6479,673.1434,1846.6598,673.1434z" style="fill: rgb(53, 89, 104);"/>
		</g>
		<g>
			<path class="st3" d="M1849.0682,712.8834h-118.0159c-4.9882,0-9.0319-4.0437-9.0319-9.0319l0,0&#10;&#9;&#9;&#9;&#9;c0-4.9881,4.0437-9.0318,9.0319-9.0318h118.0159c4.9882,0,9.0319,4.0437,9.0319,9.0318l0,0&#10;&#9;&#9;&#9;&#9;C1858.1001,708.8397,1854.0564,712.8834,1849.0682,712.8834z" style="fill: rgb(53, 89, 104);"/>
		</g>
		<g>
			<path d="M 1645.551025 459.992096 H 1668.431625 V 502.140594 H 1645.551025 V 459.992096 Z" class="st3" style="fill: rgb(53, 89, 104);"/>
		</g>
		<g>
			<path d="M 1987.556396 459.992096 H 2010.436996 V 502.140594 H 1987.556396 V 459.992096 Z" class="st3" style="fill: rgb(53, 89, 104);"/>
		</g>
		<path class="st3" d="M2011.2949,485.2812h-1.7611v-8.4297h1.7611c3.8232,0,7.3507-1.5529,9.932-4.373&#10;&#9;&#9;&#9;c2.5814-2.8201,3.8174-6.4705,3.4805-10.2784c-4.386-49.5581-27.0114-95.3511-63.7085-128.9447&#10;&#9;&#9;&#9;c-36.6978-33.593-84.3071-52.0936-134.0586-52.0936c-49.7516,0-97.361,18.5006-134.0586,52.0936&#10;&#9;&#9;&#9;c-36.6971,33.5936-59.3226,79.3866-63.7086,128.9447c-0.3369,3.808,0.8992,7.4583,3.4805,10.2784&#10;&#9;&#9;&#9;c2.5814,2.8201,6.1089,4.373,9.9321,4.373h2.9653v8.4297h-2.9653c-6.1265,0-12.0131-2.5919-16.1498-7.1108&#10;&#9;&#9;&#9;c-4.1372-4.5189-6.2-10.6106-5.6595-16.7136c4.5718-51.662,28.1581-99.3995,66.4133-134.4191&#10;&#9;&#9;&#9;c38.256-35.0195,87.887-54.3056,139.7506-54.3056s101.4946,19.2861,139.7505,54.3056&#10;&#9;&#9;&#9;c38.2554,35.0195,61.8417,82.7571,66.4133,134.4191c0.5404,6.103-1.5223,12.1947-5.6595,16.7136&#10;&#9;&#9;&#9;C2023.308,482.6893,2017.4214,485.2812,2011.2949,485.2812z" style="fill: rgb(53, 89, 104);"/>
	</g><g transform="matrix(1, 0, 0, 1, 0, -1.4210854715202004e-14)">
			<path class="st3" d="M1935.6798,1226.0956h-223.6366c-4.7053,0-8.5198-3.8145-8.5198-8.5198v-59.9146&#10;&#9;&#9;&#9;&#9;c0-4.7053,3.8145-8.5198,8.5198-8.5198h223.6366c4.7053,0,8.5198,3.8145,8.5198,8.5198v59.9146&#10;&#9;&#9;&#9;&#9;C1944.1996,1222.2811,1940.3851,1226.0956,1935.6798,1226.0956z" style="fill: rgb(53, 89, 104);"/>
		</g><path class="st10" d="M1935.6798,1149.1415h-20.5212c4.7054,0,8.5199,3.8145,8.5199,8.5198v59.9146&#10;&#9;&#9;&#9;&#9;c0,4.7053-3.8145,8.5198-8.5199,8.5198h20.5212c4.7053,0,8.5198-3.8145,8.5198-8.5198v-59.9146&#10;&#9;&#9;&#9;&#9;C1944.1996,1152.9559,1940.3851,1149.1415,1935.6798,1149.1415z" style="fill: rgb(40, 76, 90);" transform="matrix(1, 0, 0, 1, 0, -2.1316282072803006e-14)"/><path class="st11" d="M1919.8453,993.8802h-191.9677c-5.0074,0-9.0668,4.0593-9.0668,9.0668v146.1945h210.1012V1002.947&#10;&#9;&#9;&#9;C1928.9121,997.9395,1924.8528,993.8802,1919.8453,993.8802z" style="fill: rgb(252, 203, 146);" transform="matrix(1, 0, 0, 1, 0, -1.4210854715202004e-14)"/><path d="M 1718.810791 1133.75061 H 1928.912186 V 1149.14151 H 1718.810791 V 1133.75061 Z" class="st12" style="fill: rgb(249, 188, 140);" transform="matrix(1, 0, 0, 1, 0, -1.4210854715202004e-14)"/><path d="M 1748.006592 1014.724915 H 1755.152392 V 1149.14151 H 1748.006592 V 1014.724915 Z" class="st13" style="fill: rgb(235, 149, 123);" transform="matrix(1, 0, 0, 1, 0, -1.4210854715202004e-14)"/><path d="M 1796.19458 1014.724915 H 1803.34038 V 1149.14151 H 1796.19458 V 1014.724915 Z" class="st13" style="fill: rgb(235, 149, 123);" transform="matrix(1, 0, 0, 1, 0, -1.4210854715202004e-14)"/><path d="M 1844.38269 1014.724915 H 1851.528491 V 1149.14151 H 1844.38269 V 1014.724915 Z" class="st13" style="fill: rgb(235, 149, 123);" transform="matrix(1, 0, 0, 1, 0, -1.4210854715202004e-14)"/><path d="M 1892.570679 1014.724915 H 1899.716479 V 1149.14151 H 1892.570679 V 1014.724915 Z" class="st13" style="fill: rgb(235, 149, 123);" transform="matrix(1, 0, 0, 1, 0, -1.4210854715202004e-14)"/><path class="st14" d="M1722.9651,1226.0956v74.7678c0,6.342,2.7198,12.3795,7.4702,16.5814l20.4128,18.0568&#10;&#9;&#9;&#9;c28.1986,24.9436,43.5302,61.3525,41.6686,98.9541l-6.3921,129.1212c-1.0602,21.415,6.4629,42.3689,20.9026,58.219v0.0001&#10;&#9;&#9;&#9;c9.0328,9.9152,24.6357,9.9152,33.6686,0v-0.0001c14.4397-15.8501,21.9628-36.804,20.9026-58.219l-6.3921-129.1212&#10;&#9;&#9;&#9;c-1.8616-37.6016,13.47-74.0105,41.6685-98.9541l20.413-18.0568c4.7504-4.2019,7.4702-10.2394,7.4702-16.5814v-74.7678H1722.9651z&#10;&#9;&#9;&#9; M1823.8615,1590.2457c-10.3217,0-18.6888-8.3673-18.6888-18.6888c0-10.3217,8.3672-18.689,18.6888-18.689&#10;&#9;&#9;&#9;c10.3218,0,18.689,8.3673,18.689,18.689C1842.5504,1581.8784,1834.1832,1590.2457,1823.8615,1590.2457z" style="fill: rgb(255, 222, 148);" transform="matrix(1, 0, 0, 1, 0, -1.4210854715202004e-14)"/><path class="st15" d="M1906.4354,1226.0956v74.7678c0,6.342-2.72,12.3795-7.4702,16.5814l-20.4128,18.0568&#10;&#9;&#9;&#9;&#9;c-28.1986,24.9436-43.5302,61.3525-41.6686,98.9541l6.3921,129.1212c1.0602,21.415-6.463,42.3689-20.9026,58.219v0.0001&#10;&#9;&#9;&#9;&#9;c-2.224,2.4412-4.8486,4.2747-7.673,5.5138c8.6471,3.7936,19.1865,1.9601,25.9955-5.5138v-0.0001&#10;&#9;&#9;&#9;&#9;c14.4397-15.8501,21.9628-36.804,20.9026-58.219l-6.3921-129.1212c-1.8616-37.6016,13.47-74.0105,41.6685-98.9541l20.413-18.0568&#10;&#9;&#9;&#9;&#9;c4.7504-4.2019,7.4702-10.2394,7.4702-16.5814v-74.7678H1906.4354z" style="fill: rgb(252, 204, 129);" transform="matrix(1, 0, 0, 1, 0, -2.1316282072803006e-14)"/><path class="st16" d="M1786.1246,1563.5769c-1.0602,21.415,6.4629,42.3689,20.9026,58.219v0.0001&#10;&#9;&#9;&#9;c9.0328,9.9152,24.6357,9.9152,33.6686,0v-0.0001c14.4397-15.8501,21.9628-36.804,20.9026-58.219l-1.5333-30.9723h-72.4071&#10;&#9;&#9;&#9;L1786.1246,1563.5769z M1823.8615,1552.8679c10.3218,0,18.689,8.3673,18.689,18.689c0,10.3215-8.3672,18.6888-18.689,18.6888&#10;&#9;&#9;&#9;c-10.3217,0-18.6888-8.3673-18.6888-18.6888C1805.1726,1561.2352,1813.5398,1552.8679,1823.8615,1552.8679z" style="fill: rgb(136, 201, 240);" transform="matrix(1, 0, 0, 1, 0, -1.4210854715202004e-14)"/><path class="st17" d="M1861.5984,1563.5769l-1.5333-30.9723h-17.3145l1.5333,30.9723&#10;&#9;&#9;&#9;&#9;c1.0602,21.415-6.4629,42.3689-20.9026,58.219v0.0001c-2.3551,2.5851-5.1615,4.4797-8.1769,5.7168&#10;&#9;&#9;&#9;&#9;c8.5499,3.5078,18.8136,1.6132,25.4913-5.7168v-0.0001C1855.1355,1605.9458,1862.6586,1584.9919,1861.5984,1563.5769z" style="fill: rgb(106, 189, 232);" transform="matrix(1, 0, 0, 1, 0, -2.1316282072803006e-14)"/><path class="st18" d="M1743.1969,1263.3733L1743.1969,1263.3733c-4.6295,0-8.3824-3.7529-8.3824-8.3824v-14.0167&#10;&#9;&#9;&#9;c0-4.6295,3.7529-8.3826,8.3824-8.3826l0,0c4.6295,0,8.3826,3.7531,8.3826,8.3826v14.0167&#10;&#9;&#9;&#9;C1751.5795,1259.6204,1747.8264,1263.3733,1743.1969,1263.3733z" style="fill: rgb(255, 246, 215);" transform="matrix(1, 0, 0, 1, 0, -1.4210854715202004e-14)"/><path class="st18" d="M1743.1969,1312.4774L1743.1969,1312.4774c-4.6295,0-8.3824-3.7529-8.3824-8.3824v-23.9109&#10;&#9;&#9;&#9;c0-4.6295,3.7529-8.3824,8.3824-8.3824l0,0c4.6295,0,8.3826,3.7529,8.3826,8.3824v23.9109&#10;&#9;&#9;&#9;C1751.5795,1308.7245,1747.8264,1312.4774,1743.1969,1312.4774z" style="fill: rgb(255, 246, 215);" transform="matrix(1, 0, 0, 1, 0, -1.4210854715202004e-14)"/><path class="st10" d="M1903.8805,1175.6588h-155.3199c-2.9623,0-5.3636-2.4014-5.3636-5.3635l0,0&#10;&#9;&#9;&#9;c0-2.9623,2.4014-5.3635,5.3636-5.3635h155.3199c2.9623,0,5.3636,2.4012,5.3636,5.3635l0,0&#10;&#9;&#9;&#9;C1909.2441,1173.2574,1906.8428,1175.6588,1903.8805,1175.6588z" style="fill: rgb(40, 76, 90);" transform="matrix(1, 0, 0, 1, 0, -1.4210854715202004e-14)"/><path class="st10" d="M1903.8805,1206.2408h-31.2212c-2.9623,0-5.3636-2.4014-5.3636-5.3636l0,0&#10;&#9;&#9;&#9;c0-2.9622,2.4014-5.3635,5.3636-5.3635h31.2212c2.9623,0,5.3636,2.4014,5.3636,5.3635l0,0&#10;&#9;&#9;&#9;C1909.2441,1203.8395,1906.8428,1206.2408,1903.8805,1206.2408z" style="fill: rgb(40, 76, 90);" transform="matrix(1, 0, 0, 1, 0, -1.4210854715202004e-14)"/><path class="st10" d="M1839.019,1206.2408h-90.4585c-2.9623,0-5.3636-2.4014-5.3636-5.3636l0,0&#10;&#9;&#9;&#9;c0-2.9622,2.4014-5.3635,5.3636-5.3635h90.4585c2.9623,0,5.3636,2.4014,5.3636,5.3635l0,0&#10;&#9;&#9;&#9;C1844.3827,1203.8395,1841.9813,1206.2408,1839.019,1206.2408z" style="fill: rgb(40, 76, 90);" transform="matrix(1, 0, 0, 1, 0, -1.4210854715202004e-14)"/><path class="st19" d="M1717.1633,1187.6185L1717.1633,1187.6185c-3.2041,0-5.8016-2.5975-5.8016-5.8016v-15.614&#10;&#9;&#9;&#9;&#9;c0-3.2042,2.5975-5.8018,5.8016-5.8018l0,0c3.2042,0,5.8018,2.5975,5.8018,5.8018v15.614&#10;&#9;&#9;&#9;&#9;C1722.9651,1185.021,1720.3676,1187.6185,1717.1633,1187.6185z" style="fill: rgb(76, 123, 144);" transform="matrix(1, 0, 0, 1, 0, -2.1316282072803006e-14)"/><path class="st5" d="M1904.1597,990.0024h-0.4581h-33.2552h-24.3943c-5.1467,0-9.3191,4.1723-9.3191,9.3191v59.5733&#10;&#9;&#9;&#9;&#9;c0,9.3097,7.547,16.8567,16.8567,16.8567l0,0c9.3097,0,16.8567-7.547,16.8567-16.8567v-14.6923&#10;&#9;&#9;&#9;&#9;c0-9.1832,7.4445-16.6277,16.6277-16.6277l0,0c9.1831,0,16.6276,7.4445,16.6276,16.6277v14.6923&#10;&#9;&#9;&#9;&#9;c0,9.3097,7.547,16.8567,16.8567,16.8567l0,0c9.3097,0,16.8567-7.547,16.8567-16.8567v-59.5733&#10;&#9;&#9;&#9;&#9;c0-5.1468-4.1722-9.3191-9.3191-9.3191H1904.1597z" style="fill: rgb(235, 88, 154);" transform="matrix(1, 0, 0, 1, 0, -2.1316282072803006e-14)"/><path class="st20" d="M1928.0958,990.0024h-8.5028c5.1467,0,9.3192,4.1723,9.3192,9.3191v59.5733&#10;&#9;&#9;&#9;&#9;&#9;c0,7.8384-5.3578,14.4077-12.6053,16.2946c1.3605,0.3542,2.78,0.5621,4.2513,0.5621c9.3097,0,16.8567-7.547,16.8567-16.8567&#10;&#9;&#9;&#9;&#9;&#9;v-59.5733C1937.4149,994.1747,1933.2428,990.0024,1928.0958,990.0024z" style="fill: rgb(215, 81, 152);" transform="matrix(1, 0, 0, 1, 0, -2.1316282072803006e-14)"/><path class="st20" d="M1878.5712,1027.5748h-0.0001c-9.1831,0-16.6274,7.4445-16.6274,16.6277v14.6923&#10;&#9;&#9;&#9;&#9;&#9;c0,7.8384-5.3578,14.4077-12.6053,16.2946c1.3605,0.3542,2.78,0.5621,4.2513,0.5621c9.3097,0,16.8567-7.547,16.8567-16.8567&#10;&#9;&#9;&#9;&#9;&#9;v-14.6923c0-7.7111,5.2566-14.1772,12.3762-16.0583C1881.4631,1027.785,1880.0433,1027.5748,1878.5712,1027.5748z" style="fill: rgb(215, 81, 152);" transform="matrix(1, 0, 0, 1, 0, -2.1316282072803006e-14)"/><path class="st5" d="M1920.5582,1123.2898L1920.5582,1123.2898c9.3097,0,16.8567-7.547,16.8567-16.8567v-3.3094&#10;&#9;&#9;&#9;&#9;c0-9.3097-7.547-16.8567-16.8567-16.8567l0,0c-9.3097,0-16.8567,7.547-16.8567,16.8567v3.3094&#10;&#9;&#9;&#9;&#9;C1903.7015,1115.7428,1911.2485,1123.2898,1920.5582,1123.2898z" style="fill: rgb(235, 88, 154);" transform="matrix(1, 0, 0, 1, 0, -2.1316282072803006e-14)"/><path class="st20" d="M1920.5582,1086.267c-1.3013,0-2.5625,0.1616-3.7789,0.4407c7.4874,1.7177,13.0776,8.4076,13.0776,16.416&#10;&#9;&#9;&#9;&#9;v3.3094c0,8.0084-5.5902,14.6984-13.0776,16.416c1.2164,0.2791,2.4777,0.4407,3.7789,0.4407&#10;&#9;&#9;&#9;&#9;c9.3097,0,16.8567-7.547,16.8567-16.8567v-3.3094C1937.4149,1093.814,1929.8679,1086.267,1920.5582,1086.267z" style="fill: rgb(215, 81, 152);" transform="matrix(1, 0, 0, 1, 0, -2.1316282072803006e-14)"/><path class="st8" d="M1865.9115,1007.592h-11.6348c-3.4911,0-6.3212-2.8301-6.3212-6.3213l0,0&#10;&#9;&#9;&#9;c0-3.4911,2.8301-6.3212,6.3212-6.3212h11.6348c3.4911,0,6.3213,2.8301,6.3213,6.3212l0,0&#10;&#9;&#9;&#9;C1872.2328,1004.7618,1869.4026,1007.592,1865.9115,1007.592z" style="fill: rgb(243, 166, 201);" transform="matrix(1, 0, 0, 1, 0, -1.4210854715202004e-14)"/><path d="M 325.914398 845.772888 H 389.687298 V 1053.549286 H 325.914398 V 845.772888 Z" class="st5" style="fill: rgb(235, 88, 154);" transform="matrix(1, 0, 0, 1, 0, -1.4210854715202004e-14)"/><path d="M 372.201202 845.772888 H 389.687302 V 1053.549286 H 372.201202 V 845.772888 Z" class="st21" style="fill: rgb(217, 75, 149);" transform="matrix(1, 0, 0, 1, 0, -1.4210854715202004e-14)"/><path class="st3" d="M389.454,1053.5492h-63.3063c-5.7438,0-10.4001,4.6564-10.4001,10.4001l0,0&#10;&#9;&#9;&#9;&#9;c0,5.7439,4.6563,10.4001,10.4001,10.4001h63.3063c5.7438,0,10.4001-4.6562,10.4001-10.4001l0,0&#10;&#9;&#9;&#9;&#9;C399.8541,1058.2056,395.1978,1053.5492,389.454,1053.5492z" style="fill: rgb(53, 89, 104);" transform="matrix(1, 0, 0, 1, 0, -2.1316282072803006e-14)"/><path class="st5" d="M396.1848,819.8115H319.417c-1.8174,0-3.0625,1.8325-2.393,3.5222l8.8905,22.4392h63.7729l8.8905-22.4392&#10;&#9;&#9;&#9;C399.2473,821.644,398.0022,819.8115,396.1848,819.8115z" style="fill: rgb(235, 88, 154);" transform="matrix(1, 0, 0, 1, 0, -1.4210854715202004e-14)"/><path class="st21" d="M396.1849,819.8115h-17.4861c1.8174,0,3.0624,1.8325,2.3929,3.5222l-8.8905,22.4392h17.4861l8.8905-22.4392&#10;&#9;&#9;&#9;C399.2473,821.644,398.0023,819.8115,396.1849,819.8115z" style="fill: rgb(217, 75, 149);" transform="matrix(1, 0, 0, 1, 0, -1.4210854715202004e-14)"/><path class="st19" d="M342.5434,1068.9781h-12.3431c-2.367,0-4.2858-1.9188-4.2858-4.2858l0,0&#10;&#9;&#9;&#9;&#9;c0-2.3671,1.9188-4.2859,4.2858-4.2859h12.3431c2.367,0,4.2858,1.9188,4.2858,4.2859l0,0&#10;&#9;&#9;&#9;&#9;C346.8292,1067.0593,344.9104,1068.9781,342.5434,1068.9781z" style="fill: rgb(76, 123, 144);" transform="matrix(1, 0, 0, 1, 0, -2.1316282072803006e-14)"/><path class="st22" d="M519.0363,558.9847v-0.0001c-1.161-2.7657-3.8678-4.5651-6.8676-4.5651H365.6895h-15.7773H203.4327&#10;&#9;&#9;&#9;c-2.9995,0-5.7063,1.7994-6.8673,4.5651v0.0001c-11.9962,28.5793-11.9962,60.782,0,89.3612v0.0001&#10;&#9;&#9;&#9;c1.161,2.7658,3.8678,4.5652,6.8673,4.5652h146.4795h15.7773h146.4792c2.9998,0,5.7066-1.7994,6.8676-4.5652v-0.0001&#10;&#9;&#9;&#9;C531.0325,619.7667,531.0325,587.564,519.0363,558.9847z" style="fill: rgb(121, 189, 113);" transform="matrix(1, 0, 0, 1, 0, -1.4210854715202004e-14)"/><path class="st23" d="M370.6377,632.3392h-18.6451H191.1899c1.3917,5.4269,3.1807,10.7778,5.3755,16.0066v0.0001&#10;&#9;&#9;&#9;c1.1609,2.7658,3.8678,4.5652,6.8672,4.5652h146.4795h15.7775h146.479c2.9999,0,5.7068-1.7994,6.8677-4.5652v-0.0001&#10;&#9;&#9;&#9;c2.1948-5.2288,3.9838-10.5797,5.3755-16.0066H370.6377z" style="fill: rgb(103, 179, 110);" transform="matrix(1, 0, 0, 1, 0, -1.4210854715202004e-14)"/><path class="st3" d="M362.4296,819.8114h-9.2574v-67.5483c0-3.4142,2.4228-6.4111,5.7617-7.1263l210.2434-45.0518v-97.6609&#10;&#9;&#9;&#9;h-41.2955v-9.2574h50.5529v108.5104c0,3.4142-2.4229,6.4111-5.7618,7.1263l-210.2433,45.0518V819.8114z" style="fill: rgb(53, 89, 104);" transform="matrix(1, 0, 0, 1, 0, -1.4210854715202004e-14)"/><path class="st24" d="M234.7122,582.4523H214.826c-4.9233,0-8.9145-3.9911-8.9145-8.9145l0,0&#10;&#9;&#9;&#9;c0-4.9233,3.9911-8.9145,8.9145-8.9145h19.8862c4.9233,0,8.9145,3.9911,8.9145,8.9145l0,0&#10;&#9;&#9;&#9;C243.6267,578.4612,239.6356,582.4523,234.7122,582.4523z" style="fill: rgb(175, 211, 152);" transform="matrix(1, 0, 0, 1, 0, -1.4210854715202004e-14)"/><path class="st24" d="M348.8864,582.4523H268.313c-4.9233,0-8.9145-3.9911-8.9145-8.9145l0,0&#10;&#9;&#9;&#9;c0-4.9233,3.9911-8.9145,8.9145-8.9145h80.5734c4.9233,0,8.9145,3.9911,8.9145,8.9145l0,0&#10;&#9;&#9;&#9;C357.8009,578.4612,353.8097,582.4523,348.8864,582.4523z" style="fill: rgb(175, 211, 152);" transform="matrix(1, 0, 0, 1, 0, -1.4210854715202004e-14)"/><path class="st25" d="M455.6915,351.0183h-17.8342c-5.5847,0-10.1119,4.5272-10.1119,10.1118v40.6856&#10;&#9;&#9;&#9;c0,6.2299-4.874,11.574-11.1029,11.6879c-6.3456,0.116-11.5262-4.9933-11.5262-11.3126v-23.0015&#10;&#9;&#9;&#9;c0-5.3331-4.3233-9.6565-9.6564-9.6565h-78.3325c-1.9593,0-3.5597,1.6031-3.5561,3.5623v0.0378v49.5117&#10;&#9;&#9;&#9;c0,6.2299-4.874,11.574-11.1029,11.6878c-6.3456,0.116-11.5262-4.9933-11.5262-11.3126v-49.8869v-0.0378&#10;&#9;&#9;&#9;c0.0035-1.9593-1.5969-3.5623-3.5562-3.5623h-36.2324c-7.5656,0-13.6985,6.133-13.6985,13.6985v171.1879h228.3483V361.1301&#10;&#9;&#9;&#9;C465.8034,355.5455,461.2762,351.0183,455.6915,351.0183z M313.1855,506.4005c0,6.2133-5.037,11.2503-11.2502,11.2503&#10;&#9;&#9;&#9;c-6.2133,0-11.2503-5.037-11.2503-11.2503v-34.5973c0-6.2133,5.037-11.2502,11.2503-11.2502&#10;&#9;&#9;&#9;c6.2133,0,11.2502,5.0369,11.2502,11.2502V506.4005z M427.7454,461.5923c0,6.2489-5.0656,11.3146-11.3145,11.3146&#10;&#9;&#9;&#9;c-6.2489,0-11.3146-5.0657-11.3146-11.3146v-6.4287c0-6.2489,5.0656-11.3145,11.3146-11.3145&#10;&#9;&#9;&#9;c6.2489,0,11.3145,5.0657,11.3145,11.3145V461.5923z" style="fill: rgb(198, 220, 153);" transform="matrix(1, 0, 0, 1, 0, -1.4210854715202004e-14)"/><path class="st8" d="M341.161,884.3452L341.161,884.3452c-4.0773,0-7.3825-3.3052-7.3825-7.3824v-11.2071&#10;&#9;&#9;&#9;c0-4.0773,3.3052-7.3825,7.3825-7.3825h0c4.0772,0,7.3825,3.3052,7.3825,7.3825v11.2071&#10;&#9;&#9;&#9;C348.5435,881.04,345.2383,884.3452,341.161,884.3452z" style="fill: rgb(243, 166, 201);" transform="matrix(1, 0, 0, 1, 0, -1.4210854715202004e-14)"/><path class="st8" d="M341.161,933.7068L341.161,933.7068c-4.0773,0-7.3825-3.3052-7.3825-7.3825v-28.1678&#10;&#9;&#9;&#9;c0-4.0772,3.3052-7.3825,7.3825-7.3825h0c4.0772,0,7.3825,3.3053,7.3825,7.3825v28.1678&#10;&#9;&#9;&#9;C348.5435,930.4016,345.2383,933.7068,341.161,933.7068z" style="fill: rgb(243, 166, 201);" transform="matrix(1, 0, 0, 1, 0, -1.4210854715202004e-14)"/><path d="M 2348.557129 433.0159 H 2561.381729 V 836.880005 H 2348.557129 V 433.0159 Z" class="st5" style="fill: rgb(235, 88, 154);" transform="matrix(1, 0, 0, 1, 0, -1.4210854715202004e-14)"/><path d="M 2535.038818 433.0159 H 2561.381918 V 836.880005 H 2535.038818 V 433.0159 Z" class="st21" style="fill: rgb(217, 75, 149);" transform="matrix(1, 0, 0, 1, 0, -1.4210854715202004e-14)"/><path class="st26" d="M2557.6724,410.5038h-205.4058c-6.2166,0-11.2561,5.0395-11.2561,11.256v0&#10;&#9;&#9;&#9;c0,6.2165,5.0396,11.256,11.2561,11.256h205.4058c6.2166,0,11.2561-5.0395,11.2561-11.256v0&#10;&#9;&#9;&#9;C2568.9285,415.5433,2563.8889,410.5038,2557.6724,410.5038z" style="fill: rgb(224, 229, 233);" transform="matrix(1, 0, 0, 1, 0, -1.4210854715202004e-14)"/><path class="st27" d="M2557.6726,426.732h-205.4062c-5.1248,0-9.4417-3.4283-10.8025-8.1141&#10;&#9;&#9;&#9;c-0.29,0.9982-0.4534,2.0503-0.4534,3.142c0,6.2165,5.0396,11.2561,11.2559,11.2561h205.4062&#10;&#9;&#9;&#9;c6.2163,0,11.2559-5.0396,11.2559-11.2561c0-1.0917-0.1633-2.1438-0.4534-3.142&#10;&#9;&#9;&#9;C2567.1143,423.3037,2562.7974,426.732,2557.6726,426.732z" style="fill: rgb(192, 197, 200);" transform="matrix(1, 0, 0, 1, 0, -1.4210854715202004e-14)"/><path class="st26" d="M2557.6724,836.88h-205.4058c-6.2166,0-11.2561,5.0395-11.2561,11.256l0,0&#10;&#9;&#9;&#9;c0,6.2166,5.0396,11.256,11.2561,11.256h205.4058c6.2166,0,11.2561-5.0395,11.2561-11.256l0,0&#10;&#9;&#9;&#9;C2568.9285,841.9195,2563.8889,836.88,2557.6724,836.88z" style="fill: rgb(224, 229, 233);" transform="matrix(1, 0, 0, 1, 0, -1.4210854715202004e-14)"/><path class="st27" d="M2557.6726,849.3369h-205.4062c-4.407,0-8.2124-2.539-10.0601-6.2285&#10;&#9;&#9;&#9;c-0.7585,1.5146-1.1958,3.2183-1.1958,5.0276c0,6.2166,5.0396,11.256,11.2559,11.256h205.4062&#10;&#9;&#9;&#9;c6.2163,0,11.2559-5.0395,11.2559-11.256c0-1.8093-0.4373-3.5129-1.1958-5.0276&#10;&#9;&#9;&#9;C2565.885,846.7979,2562.0796,849.3369,2557.6726,849.3369z" style="fill: rgb(192, 197, 200);" transform="matrix(1, 0, 0, 1, 0, -1.4210854715202004e-14)"/><path class="st8" d="M2376.9907,499.9658L2376.9907,499.9658c-7.7493,0-14.0315-6.2821-14.0315-14.0314v-21.3006&#10;&#9;&#9;&#9;&#9;c0-7.7493,6.2822-14.0314,14.0315-14.0314l0,0c7.7493,0,14.0315,6.2821,14.0315,14.0314v21.3006&#10;&#9;&#9;&#9;&#9;C2391.0222,493.6837,2384.74,499.9658,2376.9907,499.9658z" style="fill: rgb(243, 166, 201);" transform="matrix(1, 0, 0, 1, 0, -2.1316282072803006e-14)"/><path class="st8" d="M2376.9907,593.7841L2376.9907,593.7841c-7.7493,0-14.0315-6.282-14.0315-14.0314v-53.5368&#10;&#9;&#9;&#9;&#9;c0-7.7493,6.2822-14.0314,14.0315-14.0314l0,0c7.7493,0,14.0315,6.2821,14.0315,14.0314v53.5368&#10;&#9;&#9;&#9;&#9;C2391.0222,587.502,2384.74,593.7841,2376.9907,593.7841z" style="fill: rgb(243, 166, 201);" transform="matrix(1, 0, 0, 1, 0, -2.1316282072803006e-14)"/><path class="st8" d="M2493.9509,346.3262h-73.4939c-35.4443,0-64.1775,28.7332-64.1775,64.1776v0.0001h201.8489v-0.0001&#10;&#9;&#9;&#9;C2558.1284,375.0594,2529.3953,346.3262,2493.9509,346.3262z" style="fill: rgb(243, 166, 201);" transform="matrix(1, 0, 0, 1, 0, -1.4210854715202004e-14)"/><path class="st28" d="M2493.9509,346.3261h-25.3242c35.4443,0,64.1777,28.7333,64.1777,64.1776v0.0001h25.324v-0.0001&#10;&#9;&#9;&#9;C2558.1284,375.0594,2529.395,346.3261,2493.9509,346.3261z" style="fill: rgb(240, 143, 186);" transform="matrix(1, 0, 0, 1, 0, -1.4210854715202004e-14)"/><path class="st5" d="M2498.8855,330.6848h-81.8535c-3.9238,0-7.105,3.181-7.105,7.105v9.4012h96.0635v-9.4012&#10;&#9;&#9;&#9;C2505.9905,333.8658,2502.8093,330.6848,2498.8855,330.6848z" style="fill: rgb(235, 88, 154);" transform="matrix(1, 0, 0, 1, 0, -1.4210854715202004e-14)"/><path class="st1" d="M2476.145,276.3777L2476.145,276.3777c-13.6985-4.8608-28.6523-4.8608-42.3511,0l0,0&#10;&#9;&#9;&#9;&#9;c-1.1475,0.4072-1.9143,1.4928-1.9143,2.7104v51.5966h46.1797v-51.5966C2478.0593,277.8705,2477.2925,276.7849,2476.145,276.3777&#10;&#9;&#9;&#9;&#9;z" style="fill: rgb(251, 191, 110);" transform="matrix(1, 0, 0, 1, 0, -2.1316282072803006e-14)"/><path d="M 2475.824627 307.045807 A 11.7216 11.7216 0 0 1 2464.103027 318.767406 A 11.7216 11.7216 0 0 1 2452.381428 307.045807 A 11.7216 11.7216 0 0 1 2464.103027 295.324207 A 11.7216 11.7216 0 0 1 2475.824627 307.045807 Z" class="st2" style="fill: rgb(246, 170, 104);" transform="matrix(1, 0, 0, 1, 0, -2.1316282072803006e-14)"/><path d="M 2518.848026 629.361816 A 54.744999 93.848602 0 0 1 2464.103027 723.210419 A 54.744999 93.848602 0 0 1 2409.358028 629.361816 A 54.744999 93.848602 0 0 1 2464.103027 535.513214 A 54.744999 93.848602 0 0 1 2518.848026 629.361816 Z" class="st7" style="fill: rgb(240, 244, 246);" transform="matrix(1, 0, 0, 1, 0, -1.4210854715202004e-14)"/><path class="st3" d="M2503.0051,607.0168h-44.5681c-3.6541,0-6.6162-2.9623-6.6162-6.6164l0,0&#10;&#9;&#9;&#9;&#9;c0-3.6541,2.9622-6.6164,6.6162-6.6164h44.5681c3.6541,0,6.6162,2.9623,6.6162,6.6164l0,0&#10;&#9;&#9;&#9;&#9;C2509.6213,604.0546,2506.6592,607.0168,2503.0051,607.0168z" style="fill: rgb(53, 89, 104);" transform="matrix(1, 0, 0, 1, 0, -2.1316282072803006e-14)"/><path class="st3" d="M2482.6152,641.5643h-50.8225c-3.6543,0-6.6165-2.9622-6.6165-6.6164l0,0&#10;&#9;&#9;&#9;&#9;c0-3.6541,2.9622-6.6163,6.6165-6.6163h50.8225c3.6543,0,6.6165,2.9622,6.6165,6.6163l0,0&#10;&#9;&#9;&#9;&#9;C2489.2317,638.6021,2486.2695,641.5643,2482.6152,641.5643z" style="fill: rgb(53, 89, 104);" transform="matrix(1, 0, 0, 1, 0, -2.1316282072803006e-14)"/><path class="st3" d="M2457.4868,676.7576h-18.7952c-3.6541,0-6.6162-2.9623-6.6162-6.6164l0,0&#10;&#9;&#9;&#9;&#9;c0-3.6541,2.9622-6.6163,6.6162-6.6163h18.7952c3.6541,0,6.6162,2.9622,6.6162,6.6163l0,0&#10;&#9;&#9;&#9;&#9;C2464.103,673.7953,2461.1409,676.7576,2457.4868,676.7576z" style="fill: rgb(53, 89, 104);" transform="matrix(1, 0, 0, 1, 0, -2.1316282072803006e-14)"/><path class="st3" d="M2488.0918,676.7576h-5.2688c-3.6541,0-6.6165-2.9623-6.6165-6.6164l0,0&#10;&#9;&#9;&#9;&#9;c0-3.6541,2.9624-6.6163,6.6165-6.6163h5.2688c3.6541,0,6.6162,2.9622,6.6162,6.6163l0,0&#10;&#9;&#9;&#9;&#9;C2494.708,673.7953,2491.7458,676.7576,2488.0918,676.7576z" style="fill: rgb(53, 89, 104);" transform="matrix(1, 0, 0, 1, 0, -2.1316282072803006e-14)"/><path class="st3" d="M2434.7097,607.0168h-5.2688c-3.6541,0-6.6162-2.9623-6.6162-6.6164l0,0&#10;&#9;&#9;&#9;&#9;c0-3.6541,2.9622-6.6164,6.6162-6.6164h5.2688c3.6543,0,6.6165,2.9623,6.6165,6.6164l0,0&#10;&#9;&#9;&#9;&#9;C2441.3262,604.0546,2438.364,607.0168,2434.7097,607.0168z" style="fill: rgb(53, 89, 104);" transform="matrix(1, 0, 0, 1, 0, -2.1316282072803006e-14)"/><path class="st5" d="M506.0131,1173.3754l-57.0641-36.2289l16.1153-25.3832c3.3331-5.25,10.2909-6.8038,15.5408-3.4708&#10;&#9;&#9;&#9;l38.0526,24.1588c5.2499,3.333,6.8038,10.2909,3.4708,15.5408L506.0131,1173.3754z" style="fill: rgb(235, 88, 154);" transform="matrix(1, 0, 0, 1, 0, -1.4210854715202004e-14)"/><path class="st29" d="M447.6954,1469.7506H208.1629c-36.1985,0-65.5432-29.3447-65.5432-65.5432v-139.5377&#10;&#9;&#9;&#9;c0-72.5299,58.7971-131.327,131.327-131.327h173.7487c36.1985,0,65.5432,29.3447,65.5432,65.5432v205.3215&#10;&#9;&#9;&#9;C513.2386,1440.4059,483.8939,1469.7506,447.6954,1469.7506z" style="fill: rgb(67, 169, 214);" transform="matrix(1, 0, 0, 1, 0, -1.4210854715202004e-14)"/><path class="st30" d="M447.6954,1426.5117H208.1629c-36.1985,0-65.5432-29.3446-65.5432-65.5432v43.2389&#10;&#9;&#9;&#9;c0,36.1985,29.3447,65.5432,65.5432,65.5432h239.5325c36.1985,0,65.5432-29.3447,65.5432-65.5432v-43.2389&#10;&#9;&#9;&#9;C513.2386,1397.1671,483.8939,1426.5117,447.6954,1426.5117z" style="fill: rgb(23, 163, 211);" transform="matrix(1, 0, 0, 1, 0, -1.4210854715202004e-14)"/><path d="M 423.022797 1301.546631 A 95.093597 95.093597 0 0 1 327.929199 1396.640228 A 95.093597 95.093597 0 0 1 232.835602 1301.546631 A 95.093597 95.093597 0 0 1 327.929199 1206.453033 A 95.093597 95.093597 0 0 1 423.022797 1301.546631 Z" class="st7" style="fill: rgb(240, 244, 246);" transform="matrix(1, 0, 0, 1, 0, -1.4210854715202004e-14)"/><path d="M 410.206696 1301.546631 A 82.277496 82.277496 0 0 1 327.929199 1383.824127 A 82.277496 82.277496 0 0 1 245.651703 1301.546631 A 82.277496 82.277496 0 0 1 327.929199 1219.269135 A 82.277496 82.277496 0 0 1 410.206696 1301.546631 Z" class="st31" style="fill: rgb(222, 225, 227);" transform="matrix(1, 0, 0, 1, 0, -1.4210854715202004e-14)"/><path d="M 513.238586 1377.052979 H 804.982178 V 1410.356579 H 513.238586 V 1377.052979 Z" class="st1" style="fill: rgb(251, 191, 110);" transform="matrix(1, 0, 0, 1, 0, -2.1316282072803006e-14)"/><path d="M 513.238586 1400.325562 H 804.982178 V 1410.356562 H 513.238586 V 1400.325562 Z" class="st2" style="fill: rgb(246, 170, 104);" transform="matrix(1, 0, 0, 1, 0, -2.1316282072803006e-14)"/><path class="st3" d="M822.5226,1336.3544l-11.0474,7.0439c-4.0446,2.5789-6.493,7.0438-6.493,11.8406v55.1177h25.1831v-69.8113&#10;&#9;&#9;&#9;&#9;C830.1653,1336.6212,825.8314,1334.2446,822.5226,1336.3544z" style="fill: rgb(53, 89, 104);" transform="matrix(1, 0, 0, 1, 0, -2.1316282072803006e-14)"/><path class="st16" d="M266.2596,1176.8191h-16.2053c-7.8726,0-14.2546-6.382-14.2546-14.2545l0,0&#10;&#9;&#9;&#9;c0-7.8726,6.382-14.2546,14.2546-14.2546h16.2053c7.8726,0,14.2545,6.3821,14.2545,14.2546l0,0&#10;&#9;&#9;&#9;C280.5141,1170.4371,274.1322,1176.8191,266.2596,1176.8191z" style="fill: rgb(136, 201, 240);" transform="matrix(1, 0, 0, 1, 0, -1.4210854715202004e-14)"/><path class="st16" d="M377.2383,1176.8191h-64.3071c-7.8726,0-14.2545-6.382-14.2545-14.2545l0,0&#10;&#9;&#9;&#9;c0-7.8726,6.382-14.2546,14.2545-14.2546h64.3071c7.8726,0,14.2546,6.3821,14.2546,14.2546l0,0&#10;&#9;&#9;&#9;C391.4929,1170.4371,385.1109,1176.8191,377.2383,1176.8191z" style="fill: rgb(136, 201, 240);" transform="matrix(1, 0, 0, 1, 0, -1.4210854715202004e-14)"/><path d="M 352.161999 1301.546631 A 24.2328 24.2328 0 0 1 327.929199 1325.77943 A 24.2328 24.2328 0 0 1 303.6964 1301.546631 A 24.2328 24.2328 0 0 1 327.929199 1277.313831 A 24.2328 24.2328 0 0 1 352.161999 1301.546631 Z" class="st5" style="fill: rgb(235, 88, 154);" transform="matrix(1, 0, 0, 1, 0, -1.4210854715202004e-14)"/><g transform="matrix(1, 0, 0, 1, 0, -1.4210854715202004e-14)">
			<path class="st32" d="M1007.7367,864.6072l-0.0002-0.0001c-56.5214-27.5498-80.0074-95.7029-52.4576-152.2244l168.3587-345.4057&#10;&#9;&#9;&#9;&#9;c4.5092-9.2509,15.6638-13.0949,24.9147-8.5858l171.1818,83.438c9.2509,4.5091,13.0948,15.6638,8.5858,24.9146&#10;&#9;&#9;&#9;&#9;l-168.3588,345.4057C1132.4113,868.671,1064.2581,892.157,1007.7367,864.6072z" style="fill: rgb(194, 199, 202);"/>
			<path class="st0" d="M1252.1832,559.0803l-154.3749-75.2459c-7.9329-3.8666-11.2291-13.432-7.3624-21.3648l35.0352-71.8783&#10;&#9;&#9;&#9;&#9;c3.8666-7.9328,13.432-11.2291,21.3647-7.3625l154.3749,75.2459c7.9329,3.8666,11.2291,13.432,7.3624,21.3648l-35.035,71.8783&#10;&#9;&#9;&#9;&#9;C1269.6814,559.6506,1260.1161,562.9469,1252.1832,559.0803z" style="fill: rgb(255, 255, 255);"/>
			<path class="st22" d="M1250.7,548.5901l-143.7147-70.0499c-4.5778-2.2313-6.48-7.7513-4.2487-12.3291L1136,397.9676&#10;&#9;&#9;&#9;&#9;c2.2314-4.5778,7.7513-6.48,12.3291-4.2487l143.7147,70.0499c4.5779,2.2313,6.4801,7.7513,4.2488,12.329l-33.2635,68.2436&#10;&#9;&#9;&#9;&#9;C1260.7977,548.9193,1255.2778,550.8215,1250.7,548.5901z" style="fill: rgb(121, 189, 113);"/>
			<path class="st0" d="M1196.9423,672.4128l-154.3748-75.2458c-7.9329-3.8666-11.2291-13.432-7.3625-21.3648l35.0352-71.8783&#10;&#9;&#9;&#9;&#9;c3.8667-7.9328,13.432-11.2291,21.3649-7.3625l154.3749,75.2458c7.9327,3.8667,11.2291,13.432,7.3624,21.3649l-35.0352,71.8783&#10;&#9;&#9;&#9;&#9;C1214.4406,672.9832,1204.8751,676.2794,1196.9423,672.4128z" style="fill: rgb(255, 255, 255);"/>
			<path class="st0" d="M1141.7014,785.7454l-154.3749-75.2459c-7.9328-3.8666-11.2291-13.4319-7.3624-21.3648l35.0351-71.8783&#10;&#9;&#9;&#9;&#9;c3.8666-7.9328,13.4321-11.2291,21.3648-7.3624l154.3749,75.2458c7.9329,3.8666,11.2291,13.432,7.3624,21.3648l-35.035,71.8783&#10;&#9;&#9;&#9;&#9;C1159.1996,786.3157,1149.6343,789.612,1141.7014,785.7454z" style="fill: rgb(255, 255, 255);"/>
			<path class="st29" d="M1195.4591,661.9227l-143.7148-70.0499c-4.5778-2.2313-6.48-7.7512-4.2487-12.329l33.2635-68.2436&#10;&#9;&#9;&#9;&#9;c2.2313-4.5778,7.7512-6.48,12.3291-4.2487l143.7147,70.0499c4.5778,2.2314,6.48,7.7513,4.2487,12.3291l-33.2635,68.2436&#10;&#9;&#9;&#9;&#9;C1205.5568,662.2518,1200.0369,664.1541,1195.4591,661.9227z" style="fill: rgb(67, 169, 214);"/>
			<path class="st14" d="M1140.2181,775.2552l-143.7147-70.0499c-4.5778-2.2314-6.48-7.7513-4.2487-12.3291l33.2634-68.2436&#10;&#9;&#9;&#9;&#9;c2.2314-4.5778,7.7513-6.48,12.3291-4.2487l143.7147,70.0499c4.5779,2.2313,6.4801,7.7512,4.2487,12.329l-33.2634,68.2436&#10;&#9;&#9;&#9;&#9;C1150.3159,775.5844,1144.796,777.4866,1140.2181,775.2552z" style="fill: rgb(255, 222, 148);"/>
			
				<path d="M 1076.202785 801.194519 A 37.5574 37.5574 0 0 1 1038.645386 838.751919 A 37.5574 37.5574 0 0 1 1001.087986 801.194519 A 37.5574 37.5574 0 0 1 1038.645386 763.637119 A 37.5574 37.5574 0 0 1 1076.202785 801.194519 Z" transform="matrix(0.4381 -0.8989 0.8989 0.4381 -136.63 1383.7961)" class="st33" style="fill: rgb(161, 165, 167);"/>
		</g><path class="st26" d="M1037.9996,871.9871h-0.0001c-62.8782,0-113.851-50.9728-113.851-113.8509V373.884&#10;&#9;&#9;&#9;&#9;c0-10.2913,8.3428-18.634,18.634-18.634h190.434c10.2913,0,18.634,8.3427,18.634,18.634v384.2522&#10;&#9;&#9;&#9;&#9;C1151.8506,821.0143,1100.8778,871.9871,1037.9996,871.9871z" style="fill: rgb(224, 229, 233);" transform="matrix(1, 0, 0, 1, 0, -2.1316282072803006e-14)"/><path class="st0" d="M1123.868,490.2444H952.1312c-8.825,0-15.9791-7.1541-15.9791-15.9791v-79.9622&#10;&#9;&#9;&#9;&#9;c0-8.825,7.1541-15.9791,15.9791-15.9791h171.7369c8.825,0,15.979,7.1541,15.979,15.9791v79.9622&#10;&#9;&#9;&#9;&#9;C1139.847,483.0904,1132.693,490.2444,1123.868,490.2444z" style="fill: rgb(255, 255, 255);" transform="matrix(1, 0, 0, 1, 0, -2.1316282072803006e-14)"/><path class="st5" d="M1117.9385,481.4647H958.0607c-5.0927,0-9.2211-4.1284-9.2211-9.2211V396.325&#10;&#9;&#9;&#9;&#9;c0-5.0927,4.1284-9.2211,9.2211-9.2211h159.8778c5.0927,0,9.2211,4.1284,9.2211,9.2211v75.9187&#10;&#9;&#9;&#9;&#9;C1127.1595,477.3363,1123.0311,481.4647,1117.9385,481.4647z" style="fill: rgb(235, 88, 154);" transform="matrix(1, 0, 0, 1, 0, -2.1316282072803006e-14)"/><path class="st0" d="M1123.868,616.3231H952.1312c-8.825,0-15.9791-7.1541-15.9791-15.9791v-79.9622&#10;&#9;&#9;&#9;&#9;c0-8.825,7.1541-15.9791,15.9791-15.9791h171.7369c8.825,0,15.979,7.1541,15.979,15.9791v79.9622&#10;&#9;&#9;&#9;&#9;C1139.847,609.169,1132.693,616.3231,1123.868,616.3231z" style="fill: rgb(255, 255, 255);" transform="matrix(1, 0, 0, 1, 0, -2.1316282072803006e-14)"/><path class="st0" d="M1123.868,742.4017H952.1312c-8.825,0-15.9791-7.1541-15.9791-15.9791v-79.9622&#10;&#9;&#9;&#9;&#9;c0-8.825,7.1541-15.9791,15.9791-15.9791h171.7369c8.825,0,15.979,7.1541,15.979,15.9791v79.9622&#10;&#9;&#9;&#9;&#9;C1139.847,735.2477,1132.693,742.4017,1123.868,742.4017z" style="fill: rgb(255, 255, 255);" transform="matrix(1, 0, 0, 1, 0, -2.1316282072803006e-14)"/><path class="st1" d="M1117.9385,607.5434H958.0607c-5.0927,0-9.2211-4.1284-9.2211-9.2211v-75.9187&#10;&#9;&#9;&#9;&#9;&#9;c0-5.0927,4.1284-9.2211,9.2211-9.2211h159.8778c5.0927,0,9.2211,4.1284,9.2211,9.2211v75.9187&#10;&#9;&#9;&#9;&#9;&#9;C1127.1595,603.415,1123.0311,607.5434,1117.9385,607.5434z" style="fill: rgb(251, 191, 110);" transform="matrix(1, 0, 0, 1, 0, -2.1316282072803006e-14)"/><path class="st29" d="M1117.9385,733.622H958.0607c-5.0927,0-9.2211-4.1284-9.2211-9.2211v-75.9187&#10;&#9;&#9;&#9;&#9;c0-5.0927,4.1284-9.2211,9.2211-9.2211h159.8778c5.0927,0,9.2211,4.1285,9.2211,9.2211v75.9187&#10;&#9;&#9;&#9;&#9;C1127.1595,729.4936,1123.0311,733.622,1117.9385,733.622z" style="fill: rgb(67, 169, 214);" transform="matrix(1, 0, 0, 1, 0, -2.1316282072803006e-14)"/><path d="M 1075.557034 801.442688 A 37.5574 37.5574 0 0 1 1037.999634 839.000088 A 37.5574 37.5574 0 0 1 1000.442234 801.442688 A 37.5574 37.5574 0 0 1 1037.999634 763.885288 A 37.5574 37.5574 0 0 1 1075.557034 801.442688 Z" class="st33" style="fill: rgb(161, 165, 167);" transform="matrix(1, 0, 0, 1, 0, -2.1316282072803006e-14)"/><path class="st9" d="M1006.8676,549.5245h-29.3181c-6.5731,0-11.9016-5.3286-11.9016-11.9016v-0.0001&#10;&#9;&#9;&#9;&#9;&#9;c0-6.573,5.3285-11.9015,11.9016-11.9015h29.3181c6.5731,0,11.9016,5.3285,11.9016,11.9015v0.0001&#10;&#9;&#9;&#9;&#9;&#9;C1018.7692,544.1959,1013.4407,549.5245,1006.8676,549.5245z" style="fill: rgb(255, 220, 141);" transform="matrix(1, 0, 0, 1, 0, -2.1316282072803006e-14)"/><path class="st16" d="M1006.8676,676.8301h-29.3181c-6.5731,0-11.9016-5.3285-11.9016-11.9016l0,0&#10;&#9;&#9;&#9;&#9;c0-6.5731,5.3285-11.9016,11.9016-11.9016h29.3181c6.5731,0,11.9016,5.3285,11.9016,11.9016l0,0&#10;&#9;&#9;&#9;&#9;C1018.7692,671.5016,1013.4407,676.8301,1006.8676,676.8301z" style="fill: rgb(136, 201, 240);" transform="matrix(1, 0, 0, 1, 0, -2.1316282072803006e-14)"/><path class="st8" d="M1006.8676,422.2188h-29.3181c-6.5731,0-11.9016-5.3285-11.9016-11.9016l0,0&#10;&#9;&#9;&#9;&#9;c0-6.5731,5.3285-11.9016,11.9016-11.9016h29.3181c6.5731,0,11.9016,5.3285,11.9016,11.9016l0,0&#10;&#9;&#9;&#9;&#9;C1018.7692,416.8903,1013.4407,422.2188,1006.8676,422.2188z" style="fill: rgb(243, 166, 201);" transform="matrix(1, 0, 0, 1, 0, -2.1316282072803006e-14)"/><path class="st26" d="M1215.0917,1555.4783h-174.9739c-17.0931,0-30.9498-13.8566-30.9498-30.9497v-259.7914&#10;&#9;&#9;&#9;c0-9.124,7.3965-16.5205,16.5206-16.5205h203.8323c9.124,0,16.5205,7.3965,16.5205,16.5205v259.7914&#10;&#9;&#9;&#9;C1246.0414,1541.6217,1232.1847,1555.4783,1215.0917,1555.4783z" style="fill: rgb(224, 229, 233);" transform="matrix(1, 0, 0, 1, 0, -1.4210854715202004e-14)"/><path class="st34" d="M1229.5209,1248.2166h-48.4628c9.124,0,16.5205,7.3966,16.5205,16.5206v259.7914&#10;&#9;&#9;&#9;c0,17.093-13.8566,30.9497-30.9497,30.9497h48.4628c17.093,0,30.9496-13.8567,30.9496-30.9497v-259.7914&#10;&#9;&#9;&#9;C1246.0413,1255.6132,1238.645,1248.2166,1229.5209,1248.2166z" style="fill: rgb(206, 211, 214);" transform="matrix(1, 0, 0, 1, 0, -1.4210854715202004e-14)"/><path d="M 1034.492432 1219.143799 H 1220.717133 V 1248.2167 H 1034.492432 V 1219.143799 Z" class="st35" style="fill: rgb(140, 158, 168);" transform="matrix(1, 0, 0, 1, 0, -1.4210854715202004e-14)"/><path d="M 1176.509277 1219.143799 H 1220.717079 V 1248.2167 H 1176.509277 V 1219.143799 Z" class="st36" style="fill: rgb(110, 124, 131);" transform="matrix(1, 0, 0, 1, 0, -1.4210854715202004e-14)"/><path class="st26" d="M1229.4662,1219.1438h-203.7229c-4.2988,0-7.7837-3.4849-7.7837-7.7837l0,0&#10;&#9;&#9;&#9;c0-4.2988,3.4849-7.7837,7.7837-7.7837h203.7229c4.2988,0,7.7837,3.4849,7.7837,7.7837l0,0&#10;&#9;&#9;&#9;C1237.2499,1215.6589,1233.765,1219.1438,1229.4662,1219.1438z" style="fill: rgb(224, 229, 233);" transform="matrix(1, 0, 0, 1, 0, -1.4210854715202004e-14)"/><path d="M 1143.5743408203125 1180.372802734375 L 1111.6351318359375 1180.372802734375 L 1108.3310546875 1203.576416015625 L 1146.87841796875 1203.576416015625 Z" class="st35" style="fill: rgb(140, 158, 168);" transform="matrix(1, 0, 0, 1, 0, -1.4210854715202004e-14)"/><path d="M 1117.736694 1118.146362 H 1137.472794 V 1180.372761 H 1117.736694 V 1118.146362 Z" class="st26" style="fill: rgb(224, 229, 233);" transform="matrix(1, 0, 0, 1, 0, -1.4210854715202004e-14)"/><path d="M 1127.604736 1118.146362 H 1137.472836 V 1180.372761 H 1127.604736 V 1118.146362 Z" class="st37" style="fill: rgb(202, 207, 210);" transform="matrix(1, 0, 0, 1, 0, -1.4210854715202004e-14)"/><path d="M 1076.314453 1057.572144 H 1111.007053 V 1109.886345 H 1076.314453 V 1057.572144 Z" class="st29" style="fill: rgb(67, 169, 214);" transform="matrix(1, 0, 0, 1, 0, -1.4210854715202004e-14)"/><path d="M 1097.901733 1057.572144 H 1111.006933 V 1109.886345 H 1097.901733 V 1057.572144 Z" class="st30" style="fill: rgb(23, 163, 211);" transform="matrix(1, 0, 0, 1, 0, -1.4210854715202004e-14)"/><path d="M 1049.0345458984375 1090.06201171875 L 1076.314453125 1109.88623046875 L 1076.314453125 1057.5721435546875 L 1049.0345458984375 1077.3963623046875 Z" class="st29" style="fill: rgb(67, 169, 214);" transform="matrix(1, 0, 0, 1, 0, -1.4210854715202004e-14)"/><path class="st1" d="M1378.2128,1120.8998h-257.7872c-5.2017,0-9.4185-4.2168-9.4185-9.4185v-53.8049&#10;&#9;&#9;&#9;&#9;c0-5.2017,4.2168-9.4185,9.4185-9.4185h257.7872c5.2017,0,9.4185,4.2168,9.4185,9.4185v53.8049&#10;&#9;&#9;&#9;&#9;C1387.6312,1116.683,1383.4144,1120.8998,1378.2128,1120.8998z" style="fill: rgb(251, 191, 110);" transform="matrix(1, 0, 0, 1, 0, -2.1316282072803006e-14)"/><path class="st2" d="M1378.2128,1099.4272h-257.7874c-5.2015,0-9.4185-4.2168-9.4185-9.4185v21.4725&#10;&#9;&#9;&#9;&#9;c0,5.2017,4.2169,9.4185,9.4185,9.4185h257.7874c5.2015,0,9.4185-4.2168,9.4185-9.4185v-21.4725&#10;&#9;&#9;&#9;&#9;C1387.6312,1095.2104,1383.4143,1099.4272,1378.2128,1099.4272z" style="fill: rgb(246, 170, 104);" transform="matrix(1, 0, 0, 1, 0, -2.1316282072803006e-14)"/><path d="M 1242.145264 1135.768066 H 1342.368263 V 1149.259666 H 1242.145264 V 1135.768066 Z" class="st3" style="fill: rgb(53, 89, 104);" transform="matrix(1, 0, 0, 1, 0, -2.1316282072803006e-14)"/><path class="st38" d="M1036.0015,1333.9705L1036.0015,1333.9705c-7.1979,0-13.033-5.8351-13.033-13.033v-31.98&#10;&#9;&#9;&#9;c0-7.1979,5.8351-13.033,13.033-13.033l0,0c7.198,0,13.0331,5.8351,13.0331,13.033v31.98&#10;&#9;&#9;&#9;C1049.0345,1328.1354,1043.1995,1333.9705,1036.0015,1333.9705z" style="fill: rgb(240, 246, 249);" transform="matrix(1, 0, 0, 1, 0, -1.4210854715202004e-14)"/><path class="st38" d="M1036.0015,1401.8474L1036.0015,1401.8474c-7.1979,0-13.033-5.835-13.033-13.033v-15.5968&#10;&#9;&#9;&#9;c0-7.1979,5.8351-13.033,13.033-13.033l0,0c7.198,0,13.0331,5.8351,13.0331,13.033v15.5968&#10;&#9;&#9;&#9;C1049.0345,1396.0125,1043.1995,1401.8474,1036.0015,1401.8474z" style="fill: rgb(240, 246, 249);" transform="matrix(1, 0, 0, 1, 0, -1.4210854715202004e-14)"/><path class="st5" d="M1087.3912,1274.7385c0.8928,2.516,2.6155,4.645,3.7889,7.043c2.8425,5.8086,2.0972,13.2006-1.8478,18.3248&#10;&#9;&#9;&#9;c-4.1831,5.4337-11.1794,7.9862-15.8177,13.0371c-4.2241,4.5999-6.1614,11.2047-5.0909,17.3575&#10;&#9;&#9;&#9;c0.1439,0.8276,0.3757,1.7085,1.0242,2.2427c0.4996,0.4116,1.1656,0.5475,1.8049,0.6492&#10;&#9;&#9;&#9;c10.1329,1.611,20.9786-2.3973,27.6287-10.2107c1.2783-1.502,2.5432-3.2241,4.439-3.7684&#10;&#9;&#9;&#9;c3.2896-0.9446,6.2574,2.0527,8.5099,4.6295c2.2526,2.5768,5.7533,5.2371,8.7543,3.5914&#10;&#9;&#9;&#9;c3.3389-1.8308,2.4834-6.9843,4.6327-10.1276c2.1642-3.165,6.6594-3.4425,10.4896-3.2686&#10;&#9;&#9;&#9;c6.6199,0.3007,13.3611,0.9836,19.7922-0.6143c6.431-1.5978,12.6475-6.0736,14.1125-12.5363&#10;&#9;&#9;&#9;c0.4034-1.7799,0.4155-3.7147-0.3789-5.3577c-2.8236-5.8394-13.1394-4.3628-15.8284-10.2654&#10;&#9;&#9;&#9;c-1.184-2.5988-0.3268-5.6061,0.1406-8.4233c0.4673-2.8171,0.2482-6.252-2.1726-7.7668&#10;&#9;&#9;&#9;c-1.0297-0.6444-2.2822-0.8065-3.4933-0.9009c-3.9951-0.3108-8.0347-0.0461-11.9551,0.7833&#10;&#9;&#9;&#9;c-10.823,2.2899-18.3938,5.0509-28.7225,0.0074C1101.4836,1266.3726,1082.978,1262.304,1087.3912,1274.7385z" style="fill: rgb(235, 88, 154);" transform="matrix(1, 0, 0, 1, 0, -1.4210854715202004e-14)"/><path class="st8" d="M1121.2975,1282.062c3.6752-0.6698,7.1606-2.1051,10.7502-3.1394c1.6979-0.4893,3.9564-0.6754,4.8113,0.871&#10;&#9;&#9;&#9;c0.7292,1.3191-0.1671,2.9552-1.2354,4.0186c-6.5896,6.5598-18.6366,3.8995-25.5704,10.0944&#10;&#9;&#9;&#9;c-2.7228,2.4325-4.5538,6.1537-8.0391,7.2419c-0.5652,0.1764-1.2277,0.2585-1.7102-0.0847&#10;&#9;&#9;&#9;c-0.364-0.2589-0.5415-0.7017-0.6901-1.123c-1.976-5.603-3.4213-17.6652,2.6287-21.605c3.2728-2.1313,5.2388,0.4065,7.9561,2.0507&#10;&#9;&#9;&#9;C1113.5967,1282.4426,1117.4315,1282.7667,1121.2975,1282.062z" style="fill: rgb(243, 166, 201);" transform="matrix(1, 0, 0, 1, 0, -1.4210854715202004e-14)"/><path class="st5" d="M1140.9368,1342.5815c8.2317,0.9104,23.3508-8.5657,12.9749-16.5338&#10;&#9;&#9;&#9;c-4.5468-3.4917-14.4597-4.3666-17.5486,1.5764C1134.0217,1332.1289,1135.0658,1341.9323,1140.9368,1342.5815z" style="fill: rgb(235, 88, 154);" transform="matrix(1, 0, 0, 1, 0, -1.4210854715202004e-14)"/><path class="st5" d="M1083.8198,1353.9648c-0.0577,0.863-0.0117,1.8229,0.5844,2.4495c0.3202,0.3364,0.7617,0.5309,1.2065,0.6647&#10;&#9;&#9;&#9;c3.6803,1.1077,7.626-1.6693,9.1844-5.1826c1.4202-3.2014,2.9269-12.9716-3.2642-10.6718&#10;&#9;&#9;&#9;C1087.057,1342.8865,1084.1106,1349.6233,1083.8198,1353.9648z" style="fill: rgb(235, 88, 154);" transform="matrix(1, 0, 0, 1, 0, -1.4210854715202004e-14)"/><path class="st8" d="M1076.9193,1327.0574c0.0778,0.2809,0.1737,0.5629,0.348,0.7964c0.1626,0.218,0.3867,0.3837,0.6248,0.5153&#10;&#9;&#9;&#9;c1.6323,0.9021,3.6584,0.2126,5.353-0.5662c1.5294-0.7029,3.0288-1.4707,4.4933-2.3004c1.6302-0.9237,3.217-1.9241,4.7532-2.9972&#10;&#9;&#9;&#9;c0.6274-0.4382,1.302-0.9806,1.3789-1.7421c0.0935-0.928-0.7715-1.6924-1.6562-1.9877&#10;&#9;&#9;&#9;c-2.9506-0.9849-8.6956-0.2903-11.6639,0.7073C1077.1321,1320.6315,1075.9607,1323.5974,1076.9193,1327.0574z" style="fill: rgb(243, 166, 201);" transform="matrix(1, 0, 0, 1, 0, -1.4210854715202004e-14)"/><path class="st5" d="M1071.4691,1295.4393c-0.3104,0.7509-0.7358,1.6896-1.5481,1.6774c-0.4523-0.007-0.8302-0.3329-1.1466-0.656&#10;&#9;&#9;&#9;c-3.0094-3.0734-4.3395-7.4174-6.9774-10.8151c-1.2158-1.5658-2.6981-2.9149-3.8569-4.5233s-1.9938-3.5967-1.6454-5.5485&#10;&#9;&#9;&#9;c0.8636-4.8357,5.3024-3.3845,7.4558-0.6855c2.0415,2.5587,3.6783,4.1442,6.9614,4.9589&#10;&#9;&#9;&#9;c2.8987,0.7194,10.7891-0.3085,9.0985,4.4296C1078.2576,1288.6287,1073.2649,1291.0959,1071.4691,1295.4393z" style="fill: rgb(235, 88, 154);" transform="matrix(1, 0, 0, 1, 0, -1.4210854715202004e-14)"/><path class="st29" d="M1255.3538,1121.1876h-0.015v-76.2607c0-4.1232-3.3425-7.4657-7.4657-7.4657h-24.7172&#10;&#9;&#9;&#9;c-4.1232,0-7.4657,3.3425-7.4657,7.4657v76.2607l32.5526,94.7351c2.6028,7.5746,9.7283,12.6605,17.7374,12.6605h0.0001&#10;&#9;&#9;&#9;c12.8745,0,21.9213-12.6746,17.7374-24.8503L1255.3538,1121.1876z" style="fill: rgb(67, 169, 214);" transform="matrix(1, 0, 0, 1, 0, -1.4210854715202004e-14)"/><path class="st30" d="M1283.7177,1203.7329l-28.3639-82.5453h-0.0149v-76.2607c0-4.1233-3.3427-7.4657-7.4658-7.4657h-0.9183&#10;&#9;&#9;&#9;c0.1984,0.6714,0.309,1.3804,0.309,2.116v76.2606h0.0149l28.364,82.5454c4.1837,12.1758-4.8629,24.8503-17.7373,24.8503h-0.0002&#10;&#9;&#9;&#9;c-2.0726,0-4.0836-0.3469-5.9751-0.9833c3.4875,3.9424,8.5607,6.333,14.0504,6.333&#10;&#9;&#9;&#9;C1278.8549,1228.5833,1287.9017,1215.9086,1283.7177,1203.7329z" style="fill: rgb(23, 163, 211);" transform="matrix(1, 0, 0, 1, 0, -1.4210854715202004e-14)"/><path class="st9" d="M1156.8986,1071.8278h-22.166c-3.9366,0-7.1278-3.1913-7.1278-7.1278l0,0&#10;&#9;&#9;&#9;&#9;c0-3.9366,3.1912-7.1278,7.1278-7.1278h22.166c3.9365,0,7.1277,3.1912,7.1277,7.1278l0,0&#10;&#9;&#9;&#9;&#9;C1164.0262,1068.6365,1160.8351,1071.8278,1156.8986,1071.8278z" style="fill: rgb(255, 220, 141);" transform="matrix(1, 0, 0, 1, 0, -2.1316282072803006e-14)"/><path class="st16" d="M1227.0654,1071.8278L1227.0654,1071.8278c-3.1024,0-5.6174-2.515-5.6174-5.6174v-11.2346&#10;&#9;&#9;&#9;c0-3.1024,2.515-5.6174,5.6174-5.6174l0,0c3.1023,0,5.6173,2.515,5.6173,5.6174v11.2346&#10;&#9;&#9;&#9;C1232.6827,1069.3127,1230.1677,1071.8278,1227.0654,1071.8278z" style="fill: rgb(136, 201, 240);" transform="matrix(1, 0, 0, 1, 0, -1.4210854715202004e-14)"/><path class="st5" d="M1390.3702,1384.8673l32.5051,2.262c40.5276,2.8202,71.2244-36.1553,58.7941-74.8324&#10;&#9;&#9;&#9;c-18.8944-58.7905-72.2865-137.6416-80.6897-264.6262c-0.5795-8.7568-7.8656-15.5592-16.6416-15.5592h-47.8904&#10;&#9;&#9;&#9;c-10.0216,0-17.7819,8.7723-16.5596,18.719l37.1646,302.4337C1359.1605,1370.4164,1373.1306,1383.6677,1390.3702,1384.8673z" style="fill: rgb(235, 88, 154);" transform="matrix(1, 0, 0, 1, 0, -1.4210854715202004e-14)"/><path class="st21" d="M1481.6694,1312.297c-18.8945-58.7908-72.2865-137.6417-80.6897-264.6263&#10;&#9;&#9;&#9;c-0.5793-8.7568-7.8655-15.5593-16.6415-15.5593h-18.7245c8.776,0,16.0621,6.8025,16.6415,15.5593&#10;&#9;&#9;&#9;c8.4032,126.9846,61.7952,205.8356,80.6897,264.6263c11.1307,34.6335-12.3215,69.5005-46.4457,74.3885l6.3762,0.4437&#10;&#9;&#9;&#9;C1463.4031,1389.9493,1494.0997,1350.974,1481.6694,1312.297z" style="fill: rgb(217, 75, 149);" transform="matrix(1, 0, 0, 1, 0, -1.4210854715202004e-14)"/><path class="st8" d="M1372.6498,1266.224h-0.0001c-6.4386,0.8445-12.3427-3.6904-13.1873-10.129l-2.3213-17.6978&#10;&#9;&#9;&#9;&#9;c-0.8445-6.4386,3.6903-12.3427,10.1289-13.1873h0.0001c6.4386-0.8445,12.3427,3.6904,13.1873,10.129l2.3213,17.6978&#10;&#9;&#9;&#9;&#9;C1383.6232,1259.4753,1379.0884,1265.3794,1372.6498,1266.224z" style="fill: rgb(243, 166, 201);" transform="matrix(1, 0, 0, 1, 0, -2.1316282072803006e-14)"/><path class="st8" d="M1382.8741,1344.1737h-0.0001c-6.4386,0.8445-12.3427-3.6904-13.1873-10.129l-5.8345-44.4814&#10;&#9;&#9;&#9;&#9;c-0.8445-6.4386,3.6904-12.3428,10.129-13.1873l0,0c6.4386-0.8446,12.3428,3.6903,13.1873,10.1289l5.8345,44.4816&#10;&#9;&#9;&#9;&#9;C1393.8475,1337.425,1389.3127,1343.3291,1382.8741,1344.1737z" style="fill: rgb(243, 166, 201);" transform="matrix(1, 0, 0, 1, 0, -2.1316282072803006e-14)"/><g transform="matrix(1, 0, 0, 1, 0, -1.4210854715202004e-14)">
			<g>
				<path d="M 2305.314208984375 1582.43798828125 L 2241.176513671875 1582.43798828125 L 2305.510009765625 1131.53515625 L 2369.647705078125 1131.53515625 Z" class="st1" style="fill: rgb(251, 191, 110);"/>
			</g>
			<path d="M 2351.44580078125 1131.53515625 L 2284.954833984375 1582.43798828125 L 2305.314208984375 1582.43798828125 L 2369.647705078125 1131.53515625 Z" class="st39" style="fill: rgb(244, 157, 101);"/>
			<g>
				<path d="M 2557.8623046875 1582.43798828125 L 2622 1582.43798828125 L 2557.66650390625 1131.53515625 L 2493.52880859375 1131.53515625 Z" class="st1" style="fill: rgb(251, 191, 110);"/>
			</g>
			<path d="M 2511.730712890625 1131.53515625 L 2578.2216796875 1582.43798828125 L 2557.8623046875 1582.43798828125 L 2493.52880859375 1131.53515625 Z" class="st39" style="fill: rgb(244, 157, 101);"/>
		</g><path class="st1" d="M2579.3,1089.3025h-295.4236c-2.7698,0-5.0154,2.2455-5.0154,5.0153v32.2021&#10;&#9;&#9;&#9;c0,2.7699,2.2456,5.0153,5.0154,5.0153H2579.3c2.7698,0,5.0154-2.2454,5.0154-5.0153v-32.2021&#10;&#9;&#9;&#9;C2584.3154,1091.548,2582.0698,1089.3025,2579.3,1089.3025z" style="fill: rgb(251, 191, 110);" transform="matrix(1, 0, 0, 1, 0, -1.4210854715202004e-14)"/><path class="st40" d="M2579.3,1116.4337h-295.4236c-2.7698,0-5.0154-2.2455-5.0154-5.0154v15.1016&#10;&#9;&#9;&#9;c0,2.7699,2.2456,5.0153,5.0154,5.0153H2579.3c2.7698,0,5.0154-2.2454,5.0154-5.0153v-15.1016&#10;&#9;&#9;&#9;C2584.3154,1114.1882,2582.0698,1116.4337,2579.3,1116.4337z" style="fill: rgb(236, 176, 104);" transform="matrix(1, 0, 0, 1, 0, -1.4210854715202004e-14)"/><path d="M 2511.769775390625 1201.0343017578125 L 2423.677978515625 1201.0343017578125 L 2416.66650390625 1201.0343017578125 L 2351.40673828125 1201.0343017578125 L 2344.9345703125 1243.6419677734375 L 2416.66650390625 1243.6419677734375 L 2423.677978515625 1243.6419677734375 L 2518.241943359375 1243.6419677734375 Z" class="st1" style="fill: rgb(251, 191, 110);" transform="matrix(1, 0, 0, 1, 0, -2.1316282072803006e-14)"/><path d="M 2525.808837890625 1313.14111328125 L 2420.526123046875 1313.14111328125 L 2412.3212890625 1313.14111328125 L 2333.757080078125 1313.14111328125 L 2328.3798828125 1355.748779296875 L 2412.3212890625 1355.748779296875 L 2420.526123046875 1355.748779296875 L 2531.18603515625 1355.748779296875 Z" class="st1" style="fill: rgb(251, 191, 110);" transform="matrix(1, 0, 0, 1, 0, -2.1316282072803006e-14)"/><path d="M 2547.232666015625 1444.7393798828125 L 2420.51171875 1444.7393798828125 L 2410.694091796875 1444.7393798828125 L 2315.94384765625 1444.7393798828125 L 2310.251708984375 1487.34716796875 L 2410.694091796875 1487.34716796875 L 2420.51171875 1487.34716796875 L 2552.9248046875 1487.34716796875 Z" class="st1" style="fill: rgb(251, 191, 110);" transform="matrix(1, 0, 0, 1, 0, -2.1316282072803006e-14)"/><path d="M 2470.781494 994.381897 H 2565.702095 V 1089.302498 H 2470.781494 V 994.381897 Z" class="st5" style="fill: rgb(235, 88, 154);" transform="matrix(1, 0, 0, 1, 0, -1.4210854715202004e-14)"/><path d="M 2550.870361 994.381897 H 2565.702162 V 1089.302498 H 2550.870361 V 994.381897 Z" class="st21" style="fill: rgb(217, 75, 149);" transform="matrix(1, 0, 0, 1, 0, -1.4210854715202004e-14)"/><path class="st3" d="M2565.1575,982.0632h-93.8313c-3.4016,0-6.1592,2.7576-6.1592,6.1593v0.0001&#10;&#9;&#9;&#9;c0,3.4017,2.7576,6.1593,6.1592,6.1593h93.8313c3.4016,0,6.1594-2.7576,6.1594-6.1593v-0.0001&#10;&#9;&#9;&#9;C2571.3169,984.8209,2568.5591,982.0632,2565.1575,982.0632z" style="fill: rgb(53, 89, 104);" transform="matrix(1, 0, 0, 1, 0, -1.4210854715202004e-14)"/><path class="st8" d="M2486.8286,1027.145L2486.8286,1027.145c-3.7002,0-6.7-2.9998-6.7-6.7001v-14.936&#10;&#9;&#9;&#9;c0-3.7003,2.9998-6.7,6.7-6.7l0,0c3.7004,0,6.7002,2.9997,6.7002,6.7v14.936&#10;&#9;&#9;&#9;C2493.5288,1024.1453,2490.5291,1027.145,2486.8286,1027.145z" style="fill: rgb(243, 166, 201);" transform="matrix(1, 0, 0, 1, 0, -1.4210854715202004e-14)"/><path class="st8" d="M2486.8286,1046.4159L2486.8286,1046.4159c-3.7002,0-6.7-2.9998-6.7-6.7001v-0.7679&#10;&#9;&#9;&#9;c0-3.7003,2.9998-6.7,6.7-6.7l0,0c3.7004,0,6.7002,2.9996,6.7002,6.7v0.7679&#10;&#9;&#9;&#9;C2493.5288,1043.4161,2490.5291,1046.4159,2486.8286,1046.4159z" style="fill: rgb(243, 166, 201);" transform="matrix(1, 0, 0, 1, 0, -1.4210854715202004e-14)"/><path class="st1" d="M2569.5029,945.2571L2569.5029,945.2571c-2.2939-1.4339-5.3159-0.7366-6.75,1.5574l-21.9487,35.2487h11.5957&#10;&#9;&#9;&#9;l18.6604-30.0562C2572.4941,949.713,2571.7969,946.691,2569.5029,945.2571z" style="fill: rgb(251, 191, 110);" transform="matrix(1, 0, 0, 1, 0, -1.4210854715202004e-14)"/>
</svg>